<svg height="45" viewBox="0 0 45 45" width="45" xmlns="http://www.w3.org/2000/svg"><rect fill="#131419" height="45" rx="5" width="45"/><g fill="#fff"><path d="m334.439 255.8a3.614 3.614 0 0 1 1.727-3.042 3.745 3.745 0 0 0 -2.923-1.59c-1.247-.126-2.434.735-3.064.735s-1.608-.715-2.64-.694a3.916 3.916 0 0 0 -3.311 2c-1.411 2.449-.362 6.077 1.015 8.062.671.972 1.471 2.063 2.523 2.024 1.015-.039 1.4-.655 2.624-.655s1.569.655 2.642.638c1.089-.023 1.781-.995 2.446-1.967a8.873 8.873 0 0 0 1.109-2.278 3.53 3.53 0 0 1 -2.148-3.233z" transform="translate(-307.557 -232.297)"/><path d="m393.482 213.489a3.509 3.509 0 0 0 .833-2.554 3.582 3.582 0 0 0 -2.355 1.211 3.352 3.352 0 0 0 -.85 2.477 2.969 2.969 0 0 0 2.372-1.134z" transform="translate(-368.616 -195.935)"/></g></svg>