<svg height="13" viewBox="0 0 20 13" width="18" xmlns="http://www.w3.org/2000/svg"><path d="m905.53 819.573a11.128 11.128 0 0 0 -19.758 0 1.074 1.074 0 0 0 0 .988 11.128 11.128 0 0 0 19.758 0 1.066 1.066 0 0 0 0-.988zm-9.879 5.37a4.877 4.877 0 1 1 5-4.875 4.939 4.939 0 0 1 -5 4.875zm0-8.125a3.375 3.375 0 0 0 -.878.131 1.592 1.592 0 0 1 -.36 2.263 1.7 1.7 0 0 1 -1.963 0 3.234 3.234 0 0 0 2.338 3.978 3.337 3.337 0 0 0 4.082-2.278 3.235 3.235 0 0 0 -2.338-3.98 3.358 3.358 0 0 0 -.881-.113z" fill="#484957" transform="translate(-885.652 -813.568)"/></svg>