<svg height="13" viewBox="0 0 18 14.412" width="18" xmlns="http://www.w3.org/2000/svg"><path d="m886.1 830.713 14.4 13" fill="none" stroke="#1e1e24" stroke-linecap="round" transform="translate(-884.9 -830.007)"/><g fill="#1e1e24"><path d="m893.354 839.679a2.981 2.981 0 0 0 2.632-.552l-3.17-2.918a1.48 1.48 0 0 1 -1.54-.105 2.909 2.909 0 0 0 2.078 3.575z" transform="translate(-885.131 -830.24)"/><path d="m891.652 834.211a4.431 4.431 0 0 1 6.389 5.965l1.832 1.711a9.863 9.863 0 0 0 3.244-3.7 1 1 0 0 0 0-.9 9.7 9.7 0 0 0 -12.982-4.489z" transform="translate(-885.224 -831.108)"/><path d="m894.542 834.388a2.815 2.815 0 0 0 -1.562.015 1.412 1.412 0 0 1 .2 1.259l3.179 2.925a2.823 2.823 0 0 0 .262-.625 2.907 2.907 0 0 0 -2.079-3.574z" transform="translate(-884.744 -830.603)"/><path d="m898.063 840.775a4.423 4.423 0 0 1 -6.445-6.014l-1.76-1.643a9.882 9.882 0 0 0 -3.53 3.908.991.991 0 0 0 0 .9 9.688 9.688 0 0 0 13.307 4.316z" transform="translate(-886.219 -830.871)"/></g></svg>