<svg xmlns="http://www.w3.org/2000/svg" width="45" height="45" viewBox="0 0 45 45">
    <defs>
        <clipPath id="clip-path">
            <path id="패스_1" data-name="패스 1" class="cls-1" d="M309.148 147.212a8.449 8.449 0 0 0-.139-1.534H301.8v2.9h4.119a3.448 3.448 0 0 1-1.527 2.264v1.882h2.473a7.242 7.242 0 0 0 2.282-5.512zm0 0" transform="translate(-301.801 -145.678)"/>
        </clipPath>
        <clipPath id="clip-path-2">
            <path id="패스_2" data-name="패스 2" class="cls-1" d="M228.167 185.236a7.394 7.394 0 0 0 5.065-1.817l-2.473-1.882a4.669 4.669 0 0 1-2.592.716 4.552 4.552 0 0 1-4.282-3.092h-2.557v1.939a7.667 7.667 0 0 0 6.839 4.132zm0 0" transform="translate(-221.328 -179.161)"/>
        </clipPath>
        <clipPath id="clip-path-3">
            <path id="패스_3" data-name="패스 3" class="cls-1" d="M215.121 126.4a4.351 4.351 0 0 1 0-2.85v-1.94h-2.557a7.376 7.376 0 0 0 0 6.736l2.557-1.943zm0 0" transform="translate(-211.75 -121.61)"/>
        </clipPath>
        <clipPath id="clip-path-4">
            <path id="패스_4" data-name="패스 4" class="cls-1" d="M228.167 74.983a4.181 4.181 0 0 1 2.926 1.122l2.2-2.151A7.438 7.438 0 0 0 228.167 72a7.668 7.668 0 0 0-6.839 4.132l2.557 1.943a4.552 4.552 0 0 1 4.282-3.092zm0 0" transform="translate(-221.328 -72)"/>
        </clipPath>
        <style>
            .cls-1{fill:none;clip-rule:evenodd}
        </style>
    </defs>
    <g id="google_icon" transform="translate(-115 -605)">
        <g id="사각형_4" data-name="사각형 4" transform="translate(115 605)" style="fill:#fff;stroke:#f6f6f6">
            <rect width="45" height="45" rx="5" style="stroke:none"/>
            <rect x=".5" y=".5" width="44" height="44" rx="4.5" style="fill:none"/>
        </g>
        <g id="google" transform="translate(130 617.074)">
            <g id="그룹_2" data-name="그룹 2" transform="translate(7.653 9.063)">
                <g id="그룹_1" data-name="그룹 1" style="clip-path:url(#clip-path)">
                    <path id="사각형_1" data-name="사각형 1" transform="translate(-4.252 -4.167)" style="fill:#3e82f1" d="M0 0h15.85v15.38H0z"/>
                </g>
            </g>
            <g id="그룹_4" data-name="그룹 4" transform="translate(.814 11.851)">
                <g id="그룹_3" data-name="그룹 3" style="clip-path:url(#clip-path-2)">
                    <path id="사각형_2" data-name="사각형 2" transform="translate(-4.252 -4.167)" style="fill:#32a753" d="M0 0h20.407v14.408H0z"/>
                </g>
            </g>
            <g id="그룹_6" data-name="그룹 6" transform="translate(0 7.058)">
                <g id="그룹_5" data-name="그룹 5" style="clip-path:url(#clip-path-3)">
                    <path id="사각형_3" data-name="사각형 3" transform="translate(-4.252 -4.167)" style="fill:#f9bb00" d="M0 0h11.874v15.07H0z"/>
                </g>
            </g>
            <g id="그룹_8" data-name="그룹 8" transform="translate(.814 2.926)">
                <g id="그룹_7" data-name="그룹 7" style="clip-path:url(#clip-path-4)">
                    <path id="사각형_4-2" data-name="사각형 4" transform="translate(-4.252 -4.167)" style="fill:#e74133" d="M0 0h20.463v14.408H0z"/>
                </g>
            </g>
        </g>
    </g>
</svg>
