<svg height="25" viewBox="0 0 109 25" width="109" xmlns="http://www.w3.org/2000/svg"><g fill="#1e1e24"><path d="m93.493 210.562h.319l-1.349 6.765-2.134-3.544-.863.32-.148-.223 1.313-.522 1.738 2.851z" transform="translate(-87.341 -210.302)"/><path d="m83.052 258.691a5.4 5.4 0 0 1 3.9 1.729 6.109 6.109 0 0 1 1.666 4.184 5.9 5.9 0 0 1 -2.944 5.219 5.248 5.248 0 0 1 -2.49.694h-.309a4.474 4.474 0 0 1 -3.245-1.263v4.887q0 .784-1.052 1.029-.832 0-1.072-1.114v-9.087a5.9 5.9 0 0 1 3.963-6.013 6.932 6.932 0 0 1 1.583-.265zm-3.381 5.791v.209a3.523 3.523 0 0 0 1.855 3.16 2.905 2.905 0 0 0 1.422.361h.227a3.3 3.3 0 0 0 3.04-2.194 4 4 0 0 0 .237-1.327v-.209a3.553 3.553 0 0 0 -1.463-2.861 3.279 3.279 0 0 0 -1.968-.621 3.358 3.358 0 0 0 -3.175 2.433 3.735 3.735 0 0 0 -.175 1.049z" transform="translate(-77.426 -250.655)"/><path d="m82.627 258.33a5.359 5.359 0 0 1 3.844 1.7 6.051 6.051 0 0 1 1.641 4.122 5.842 5.842 0 0 1 -2.9 5.145 5.207 5.207 0 0 1 -2.448.68h-.314a4.411 4.411 0 0 1 -3.189-1.239l-.138-.134v5.085c0 .482-.324.79-.987.942h.017c-.516 0-.841-.341-.992-1.044v.019-9.087a5.84 5.84 0 0 1 3.909-5.933 7.045 7.045 0 0 1 1.557-.256zm-1.611.095a6 6 0 0 0 -4.016 6.1v9.111c.168.782.555 1.18 1.151 1.18h.018c.741-.171 1.116-.545 1.116-1.113v-4.887l-.136.064a4.566 4.566 0 0 0 3.3 1.285h.309a5.365 5.365 0 0 0 2.527-.7 6.011 6.011 0 0 0 2.989-5.3 6.227 6.227 0 0 0 -1.689-4.243 5.51 5.51 0 0 0 -3.959-1.756 7.154 7.154 0 0 0 -1.61.259z" transform="translate(-77 -250.206)"/><path d="m90.482 275.99v.209a3.619 3.619 0 0 0 1.9 3.236 3.013 3.013 0 0 0 1.462.372h.227a3.388 3.388 0 0 0 3.114-2.24 4.164 4.164 0 0 0 .242-1.359v-.209a3.65 3.65 0 0 0 -1.5-2.931 3.374 3.374 0 0 0 -2.018-.643 3.442 3.442 0 0 0 -3.249 2.487 3.758 3.758 0 0 0 -.178 1.078zm.331-1.017a3.292 3.292 0 0 1 3.1-2.384 3.218 3.218 0 0 1 1.923.612 3.476 3.476 0 0 1 1.428 2.789v.209a3.95 3.95 0 0 1 -.231 1.3v-.008a3.238 3.238 0 0 1 -2.969 2.145h-.224a2.859 2.859 0 0 1 -1.385-.352 3.45 3.45 0 0 1 -1.81-3.083v-.209a3.616 3.616 0 0 1 .171-1.024z" transform="translate(-88.317 -262.163)"/><path d="m154.658 258.958a5.427 5.427 0 0 1 3.911 1.74 6.13 6.13 0 0 1 1.666 4.2 5.932 5.932 0 0 1 -2.959 5.241 5.3 5.3 0 0 1 -2.5.693h-.31a5.535 5.535 0 0 1 -4.191-2.246 6.559 6.559 0 0 1 -1.189-3.687 6.007 6.007 0 0 1 2.4-4.846 5.413 5.413 0 0 1 3.172-1.095zm-3.411 5.815v.2a3.548 3.548 0 0 0 1.87 3.193 2.94 2.94 0 0 0 1.427.361h.227a3.326 3.326 0 0 0 3.059-2.211 4.037 4.037 0 0 0 .237-1.342v-.2a3.563 3.563 0 0 0 -1.477-2.883 3.261 3.261 0 0 0 -1.974-.627 3.387 3.387 0 0 0 -3.2 2.441 3.887 3.887 0 0 0 -.169 1.068z" transform="translate(-137.506 -250.879)"/><path d="m154.233 258.6a5.377 5.377 0 0 1 3.856 1.717 6.063 6.063 0 0 1 1.639 4.132 5.866 5.866 0 0 1 -2.92 5.165 5.238 5.238 0 0 1 -2.462.682h-.31a5.485 5.485 0 0 1 -4.13-2.218l.006.008a6.507 6.507 0 0 1 -1.174-3.637 5.941 5.941 0 0 1 2.369-4.776 5.339 5.339 0 0 1 3.126-1.073zm-3.226.933a6.111 6.111 0 0 0 -2.432 4.915 6.681 6.681 0 0 0 1.2 3.739 5.63 5.63 0 0 0 4.249 2.274h.31a5.392 5.392 0 0 0 2.541-.7 6.041 6.041 0 0 0 3-5.319 6.24 6.24 0 0 0 -1.688-4.255 5.306 5.306 0 0 0 -7.2-.66z" transform="translate(-137.08 -250.431)"/><path d="m162.055 276.278v.2a3.64 3.64 0 0 0 1.912 3.266 3 3 0 0 0 1.467.376h.227a3.419 3.419 0 0 0 3.133-2.259 4.193 4.193 0 0 0 .243-1.374v-.2a3.663 3.663 0 0 0 -1.511-2.953 3.355 3.355 0 0 0 -2.023-.645 3.477 3.477 0 0 0 -3.279 2.494v.005a3.976 3.976 0 0 0 -.169 1.09zm.322-1.034a3.326 3.326 0 0 1 3.13-2.39 3.2 3.2 0 0 1 1.928.611 3.5 3.5 0 0 1 1.443 2.812v.2a3.983 3.983 0 0 1 -.233 1.314v-.01a3.264 3.264 0 0 1 -2.987 2.163h-.227a2.854 2.854 0 0 1 -1.389-.354 3.474 3.474 0 0 1 -1.827-3.114v-.2a3.746 3.746 0 0 1 .162-1.042z" transform="translate(-148.395 -262.384)"/><path d="m226.156 258.424a5.556 5.556 0 0 1 3.968 1.764 1.4 1.4 0 0 1 .175.628v.078q-.186 1.078-1.043 1.077h-.043a3.156 3.156 0 0 1 -1.4-.825 3.2 3.2 0 0 0 -1.539-.417h-.228a3.371 3.371 0 0 0 -3.121 2.314 4.72 4.72 0 0 0 -.247 1.41 3.682 3.682 0 0 0 2.18 3.4 3.566 3.566 0 0 0 1.385.264 3.76 3.76 0 0 0 2.479-1.131l.424-.1h.155q.825 0 1 1.078v.066q0 1.077-2.707 2.174a7.61 7.61 0 0 1 -1.322.174h-.311a5.549 5.549 0 0 1 -4.213-2.268 6.592 6.592 0 0 1 -1.2-3.709 6.072 6.072 0 0 1 2.414-4.889 5.445 5.445 0 0 1 3.194-1.088z" transform="translate(-197.495 -250.431)"/><path d="m225.73 258.053a5.507 5.507 0 0 1 3.913 1.741l-.018-.022a1.318 1.318 0 0 1 .167.586v.061c-.116.677-.432 1.007-.962 1.007h-.043c-.162 0-.529-.14-1.355-.806l-.006-.006h-.006a3.261 3.261 0 0 0 -1.576-.427h-.228a3.464 3.464 0 0 0 -3.2 2.361v.006a4.849 4.849 0 0 0 -.251 1.438 3.778 3.778 0 0 0 2.224 3.481 3.659 3.659 0 0 0 1.422.273 3.855 3.855 0 0 0 2.532-1.151l-.035.019.424-.1h-.017.155c.509 0 .811.328.921 1v.052c0 .674-.894 1.377-2.656 2.094l.015-.006a7.626 7.626 0 0 1 -1.307.175h-.311a5.5 5.5 0 0 1 -4.153-2.24l.006.01a6.535 6.535 0 0 1 -1.181-3.661 6.016 6.016 0 0 1 2.381-4.821 5.4 5.4 0 0 1 3.145-1.064zm-3.244.934a6.182 6.182 0 0 0 -2.445 4.957 6.714 6.714 0 0 0 1.211 3.761 5.648 5.648 0 0 0 4.273 2.3h.311a7.774 7.774 0 0 0 1.337-.176h.014c1.857-.752 2.759-1.489 2.759-2.254v-.083c-.124-.762-.489-1.148-1.082-1.148h-.164l-.424.1h-.02l-.015.014a3.708 3.708 0 0 1 -2.426 1.11 3.5 3.5 0 0 1 -1.355-.258 3.613 3.613 0 0 1 -2.128-3.323 4.673 4.673 0 0 1 .243-1.381v.011a3.308 3.308 0 0 1 3.048-2.265h.228a3.129 3.129 0 0 1 1.5.407l-.012-.007a3.154 3.154 0 0 0 1.453.841h.043c.615 0 .992-.386 1.123-1.147v-.094a1.5 1.5 0 0 0 -.185-.669l-.007-.013-.01-.011a5.664 5.664 0 0 0 -4.023-1.787 5.563 5.563 0 0 0 -3.247 1.116z" transform="translate(-197.069 -249.974)"/><path d="m293.294 240.888-1.292.881v4.068q0 .891-1.04 1.076h-.062q-.8 0-1.062-1.035v-14.351q.22-1.092.979-1.091h.183q1 .232 1 1v7.605q5.053-3.562 6.056-4.168h.279q.888 0 1.054 1.176 0 .724-1.405 1.518-2.307 1.661-2.853 2.08l4.2 5.665.063.364v.1q-.187 1.091-1.054 1.09h-.073q-.621 0-1.622-1.537z" transform="translate(-255.655 -226.965)"/><path d="m292.819 240.364-1.291.88-.037.026v4.117c0 .548-.319.873-.974.991h.015-.063c-.5 0-.819-.317-.984-.971v.022-14.353.017c.137-.688.432-1.022.9-1.022h.17c.629.146.935.445.935.917v7.767l.126-.089c3.351-2.363 5.387-3.764 6.05-4.166l-.039.012h.279c.55 0 .868.361.972 1.1v-.012c0 .448-.459.933-1.363 1.441a173.733 173.733 0 0 0 -2.854 2.081l-.069.053.053.071 4.2 5.666-.015-.039.062.364v.068c-.117.686-.436 1.019-.974 1.019h-.073c-.384 0-.907-.5-1.555-1.5l-3.35-4.448-.046-.061zm3.326 4.567c.69 1.061 1.242 1.576 1.689 1.576h.073c.621 0 1-.391 1.134-1.162v-.13l-.062-.363-.005-.022-.013-.017-4.195-5.665-.015.124c.371-.283 1.357-1 2.849-2.078h-.008c.976-.55 1.449-1.071 1.449-1.595v-.012c-.118-.831-.5-1.251-1.135-1.251h-.3l-.02.012c-.667.4-2.705 1.805-6.06 4.172l.127.071v-7.605c0-.559-.358-.924-1.064-1.088h-.205c-.548 0-.9.39-1.058 1.16v14.389c.183.732.567 1.1 1.14 1.1h.075c.736-.135 1.11-.526 1.11-1.164v-4.068l-.037.072 1.291-.879-.108-.019z" transform="translate(-255.225 -226.514)"/><path d="m358.5 258.424a5.52 5.52 0 0 1 5.022 3.276 6.384 6.384 0 0 1 .619 2.791v.242q-.188 1.126-1.044 1.125h-7.74a3.27 3.27 0 0 0 1.685 1.888 4.1 4.1 0 0 0 1.53.33 4.4 4.4 0 0 0 1.983-.616h.332a1.04 1.04 0 0 1 .972 1.076v.121q0 1.3-3.07 1.723h-.289a5.474 5.474 0 0 1 -4.836-3.008 6.408 6.408 0 0 1 -.734-2.976 5.994 5.994 0 0 1 2.9-5.223 5.716 5.716 0 0 1 2.67-.749zm-3.327 5.173h6.768a4.188 4.188 0 0 0 -.858-1.651 3.288 3.288 0 0 0 -2.273-1.175h-.423a3.219 3.219 0 0 0 -2.791 1.8 3.5 3.5 0 0 0 -.42 1.029z" transform="translate(-308.619 -250.431)"/><path d="m358.078 258.053a5.464 5.464 0 0 1 4.95 3.233 6.285 6.285 0 0 1 .61 2.747v.228c-.115.709-.431 1.052-.962 1.052h-7.847l.029.112a3.372 3.372 0 0 0 1.725 1.94 4.153 4.153 0 0 0 1.559.338 4.5 4.5 0 0 0 2.02-.625l-.037.008h.316c.61.124.906.448.906.99v.121c0 .809-1.009 1.36-3 1.638h.01-.288a5.422 5.422 0 0 1 -4.768-2.969 6.347 6.347 0 0 1 -.719-2.929 5.935 5.935 0 0 1 2.865-5.149 5.669 5.669 0 0 1 2.631-.735zm-2.709.59a6.1 6.1 0 0 0 -2.943 5.3 6.527 6.527 0 0 0 .744 3.02 5.576 5.576 0 0 0 4.907 3.052h.3c2.112-.3 3.14-.888 3.14-1.811v-.121a1.119 1.119 0 0 0 -1.038-1.161h-.366l-.018.009a4.35 4.35 0 0 1 -1.946.606 4.026 4.026 0 0 1 -1.5-.325h.01a3.208 3.208 0 0 1 -1.645-1.833l-.078.11h7.74c.615 0 .994-.4 1.124-1.2v-.258a6.5 6.5 0 0 0 -.627-2.829 5.619 5.619 0 0 0 -5.1-3.325 5.843 5.843 0 0 0 -2.704.766z" transform="translate(-308.193 -249.974)"/><path d="m366.409 275.416h6.85v-.087a4.18 4.18 0 0 0 -.873-1.7v-.007h-.005a3.383 3.383 0 0 0 -2.33-1.2h-.423a3.305 3.305 0 0 0 -2.86 1.835 3.573 3.573 0 0 0 -.435 1.067l-.012.1zm.491-1.07a3.158 3.158 0 0 1 2.723-1.756h.423a3.229 3.229 0 0 1 2.217 1.152l-.01-.012c.7 1.007.842 1.425.842 1.6l.082-.086h-6.769l.082.1a3.44 3.44 0 0 1 .41-.998z" transform="translate(-319.852 -262.163)"/><path d="m428.711 233.659h.175c.635.148.955.472.955.975v3.286h1.23l.341-.044c.53 0 .877.366 1.043 1.092a1.213 1.213 0 0 1 -.91 1.169l-.62-.044h-1.085v5.625q0 1.324.7 1.577l.816.077h.414q.754 0 .951 1.073v.1c-.118.716-.463 1.071-1.033 1.071h-.8q-2 0-2.963-2.32a4.693 4.693 0 0 1 -.174-1.335v-5.867h-.433l-.661.044a1.2 1.2 0 0 1 -.91-1.157q.177-1.06.683-1.06v-.076l.713.076h.609v-3.068q.127-1.192.959-1.194z" transform="translate(-369.742 -229.667)"/><path d="m428.291 233.3h.175-.018c.6.137.891.428.891.889v3.372h1.322l.341-.044h-.01c.49 0 .806.334.963 1.026v-.021a1.125 1.125 0 0 1 -.855 1.088h.032l-.621-.043h-1.17v5.711c0 .92.255 1.478.758 1.662h.019l.817.079h.42c.462 0 .746.328.871 1v-.017.085c-.111.672-.422 1-.952 1h-.8a3.1 3.1 0 0 1 -2.889-2.268v.009a4.609 4.609 0 0 1 -.171-1.31v-5.953h-.514l-.665.044h.031a1.107 1.107 0 0 1 -.855-1.076v.014c.109-.654.311-.988.6-.988h.082v-.159l-.089.085.712.077h.7v-3.143c.079-.755.364-1.119.875-1.119zm-1.037 1.1v3.068l.082-.086h-.6l-.714-.078-.09-.01v.173l.083-.086c-.382 0-.638.38-.763 1.131v.015a1.276 1.276 0 0 0 .964 1.239l.015.006h.017l.662-.043h.428l-.082-.088v5.867a4.788 4.788 0 0 0 .178 1.362 3.255 3.255 0 0 0 3.038 2.372h.8c.614 0 .988-.385 1.114-1.144v-.13c-.138-.759-.487-1.143-1.031-1.143h-.414l-.809-.077.018.006c-.43-.157-.647-.661-.647-1.5v-5.625l-.08.088h1.084l.613.043h.018l.016-.006a1.3 1.3 0 0 0 .964-1.251v-.02c-.174-.769-.553-1.159-1.122-1.159h-.011l-.34.043h-1.22l.08.086v-3.286c0-.547-.342-.9-1.018-1.06h-.192c-.6 0-.95.427-1.036 1.271v.009z" transform="translate(-369.322 -229.219)"/><path d="m524.787 261.425a5.451 5.451 0 0 1 4.315 2.2 6.222 6.222 0 0 1 1.261 3.487l-.04 1.385v4.94q0 1.55-2.124 3.289a5.759 5.759 0 0 1 -8.422-1.756 2.539 2.539 0 0 1 -.393-1v-.121q0-.8.971-1.033h.145c.489 0 .872.394 1.147 1.187a3.8 3.8 0 0 0 3.152 1.682 3.625 3.625 0 0 0 3.389-2.147l.051-.438v-1.063a4.542 4.542 0 0 1 -3.34 1.258h-.31a5.536 5.536 0 0 1 -4.189-2.246 6.569 6.569 0 0 1 -1.188-3.689 6 6 0 0 1 2.4-4.844 5.4 5.4 0 0 1 3.175-1.091zm-3.451 5.813v.2a3.623 3.623 0 0 0 2.263 3.41 3.546 3.546 0 0 0 1.075.187h.227a3.427 3.427 0 0 0 3.173-2.4 5.3 5.3 0 0 0 .165-1.11v-.253a3.637 3.637 0 0 0 -2.283-3.41 5.052 5.052 0 0 0 -1.1-.176h-.145a3.421 3.421 0 0 0 -3.173 2.366 3.943 3.943 0 0 0 -.202 1.186z" transform="translate(-448.193 -252.947)"/><path d="m524.357 261.065a5.4 5.4 0 0 1 4.254 2.171 6.162 6.162 0 0 1 1.242 3.429l-.041 1.382v4.943c0 1-.7 2.083-2.093 3.22a5.8 5.8 0 0 1 -3.35 1.115 5.856 5.856 0 0 1 -4.956-2.852 2.34 2.34 0 0 1 -.376-.95v-.123c0-.493.3-.8.907-.949h.127c.449 0 .81.38 1.071 1.131v.014l.008.011a3.9 3.9 0 0 0 3.215 1.715 3.717 3.717 0 0 0 3.46-2.193l.009-.016v-.013l.051-.436v-1.274l-.137.135a4.489 4.489 0 0 1 -3.285 1.235h-.31a5.483 5.483 0 0 1 -4.129-2.218l.007.01a6.515 6.515 0 0 1 -1.174-3.639 5.945 5.945 0 0 1 2.368-4.776 5.36 5.36 0 0 1 3.132-1.072zm-3.226.933a6.107 6.107 0 0 0 -2.432 4.913 6.688 6.688 0 0 0 1.2 3.74 5.637 5.637 0 0 0 4.25 2.274h.31a4.642 4.642 0 0 0 3.4-1.28l-.137-.064v1.052l-.051.438.01-.031a3.567 3.567 0 0 1 -3.318 2.1 3.744 3.744 0 0 1 -3.088-1.649l.013.022c-.287-.825-.7-1.244-1.224-1.244h-.162c-.687.165-1.035.54-1.035 1.118v.121a2.589 2.589 0 0 0 .4 1.046 6.015 6.015 0 0 0 5.092 2.931 5.95 5.95 0 0 0 3.444-1.148c1.436-1.175 2.162-2.305 2.162-3.361v-4.94l.041-1.384a6.339 6.339 0 0 0 -1.278-3.54 5.346 5.346 0 0 0 -7.597-1.112z" transform="translate(-447.762 -252.499)"/><path d="m531.923 278.519v.2a3.715 3.715 0 0 0 2.311 3.488h.01a3.639 3.639 0 0 0 1.1.19h.227a3.516 3.516 0 0 0 3.248-2.447v-.017a5.357 5.357 0 0 0 .168-1.131v-.253a3.73 3.73 0 0 0 -2.332-3.489h-.016a5.038 5.038 0 0 0 -1.114-.177h-.145a3.509 3.509 0 0 0 -3.246 2.413v.006a4.069 4.069 0 0 0 -.211 1.217zm.363-1.15a3.358 3.358 0 0 1 3.1-2.315h.145a4.968 4.968 0 0 1 1.077.173l-.016-.006a3.571 3.571 0 0 1 2.237 3.331v.253a5.188 5.188 0 0 1 -.164 1.09l.006-.016a3.367 3.367 0 0 1 -3.1 2.348h-.227a3.515 3.515 0 0 1 -1.051-.182h.012a3.555 3.555 0 0 1 -2.217-3.331v-.2a3.863 3.863 0 0 1 .2-1.159z" transform="translate(-458.863 -264.228)"/><path d="m598.155 269.222q2.572-6.679 2.78-6.934a1.13 1.13 0 0 1 .754-.318q.991.2.991 1.054v.068q-.041.342-3.585 9.346a51.281 51.281 0 0 1 -1.942 4.809 1.894 1.894 0 0 1 -.672.331q-1.044-.242-1.043-1v-.188q0-.207 1.6-4.324l-3.41-8.862v-.132q.194-1.058 1.033-1.057t1.332 1.739q1.675 4.203 2.162 5.468z" transform="translate(-510.659 -253.404)"/><path d="m597.8 268.8c2.122-5.512 2.675-6.8 2.765-6.911l-.01.009a1.056 1.056 0 0 1 .7-.3h-.015c.622.124.925.442.925.969v.056c-.018.151-.654 1.891-3.58 9.324-1.114 2.951-1.766 4.562-1.931 4.789l.014-.014a1.879 1.879 0 0 1 -.643.316h.039c-.659-.153-.98-.453-.98-.916v-.189c.008-.1.29-.935 1.6-4.293l.013-.032-.013-.034-3.41-8.86.007.033v-.116c.122-.663.434-.986.953-.986s.936.564 1.254 1.677a550.382 550.382 0 0 1 2.159 5.471l.074.2zm-2.157-5.53c-.341-1.2-.816-1.8-1.41-1.8s-.975.379-1.114 1.128v.164l.005.016 3.411 8.86v-.066a35.61 35.61 0 0 0 -1.608 4.358v.189c0 .55.373.916 1.108 1.087h.02l.02-.006a2.02 2.02 0 0 0 .7-.344l.009-.008.006-.009a49.974 49.974 0 0 0 1.955-4.83c3.548-9.014 3.58-9.281 3.59-9.368v-.074c0-.616-.357-1-1.059-1.14h-.015a1.2 1.2 0 0 0 -.806.339h-.006c-.093.113-.483.958-2.794 6.96h.151c-.32-.837-1.028-2.628-2.16-5.472z" transform="translate(-510.227 -252.947)"/><path d="m657.357 262.495a.939.939 0 0 1 .994.721 3.611 3.611 0 0 1 2.425-.721 4.093 4.093 0 0 1 3.395 1.662 4.138 4.138 0 0 1 2.5-1.53l.912-.132a4.522 4.522 0 0 1 4.063 2.6 5.048 5.048 0 0 1 .5 2.094v6.035q0 .8-1 1.011h-.092a1.051 1.051 0 0 1 -1-1.1v-5.857a2.441 2.441 0 0 0 -1.753-2.433l-.48-.086h-.364q-1.389 0-2.129 1.722a2.534 2.534 0 0 0 -.094.617v6.036q-.184 1.1-1.017 1.1h-.07q-1-.186-1-1.059v-4.987a3.871 3.871 0 0 0 -.445-2.373 2.254 2.254 0 0 0 -1.908-1.059h-.114a2.33 2.33 0 0 0 -2.249 1.833 5.465 5.465 0 0 0 -.1 1.2v5.386q0 .871-1 1.059h-.061c-.555 0-.9-.366-1.026-1.1v-9.393q.118-1.247 1.113-1.246z" transform="translate(-563.224 -253.844)"/><path d="m656.925 262.143a.859.859 0 0 1 .916.66l.035.122.094-.082a3.554 3.554 0 0 1 2.373-.7 4.039 4.039 0 0 1 3.332 1.627l.076.1.059-.112a4.1 4.1 0 0 1 2.45-1.487h-.012l.911-.131h-.01a4.46 4.46 0 0 1 3.993 2.557 4.966 4.966 0 0 1 .486 2.048v6.035c0 .491-.3.795-.93.925h-.062a.967.967 0 0 1 -.929-1.015v-5.857a2.53 2.53 0 0 0 -1.806-2.515h-.015l-.48-.086h-.378a2.427 2.427 0 0 0 -2.2 1.773v.008a2.68 2.68 0 0 0 -.1.64v6.02c-.116.7-.421 1.032-.936 1.032h-.056c-.625-.116-.929-.434-.929-.972v-4.987a3.857 3.857 0 0 0 -.472-2.436l.01.009a2.338 2.338 0 0 0 -1.973-1.092h-.114a2.412 2.412 0 0 0 -2.325 1.888v.006a5.679 5.679 0 0 0 -.105 1.222v5.386c0 .538-.3.856-.929.972h-.047c-.514 0-.824-.336-.945-1.03v-9.371c.064-.776.401-1.157 1.018-1.157zm-1.188 1.158v9.407c.137.779.51 1.172 1.106 1.172h.075a1.112 1.112 0 0 0 1.064-1.145v-5.385a5.508 5.508 0 0 1 .1-1.181v.011a2.237 2.237 0 0 1 2.173-1.776h.114a2.185 2.185 0 0 1 1.843 1.025l.006.006a3.851 3.851 0 0 1 .419 2.309v4.987a1.112 1.112 0 0 0 1.063 1.145h.086c.6 0 .967-.394 1.1-1.173v-6.052a2.407 2.407 0 0 1 .092-.594l-.006.013c.484-1.125 1.156-1.671 2.056-1.671h.351l.481.086h-.015a2.347 2.347 0 0 1 1.7 2.351v5.857a1.13 1.13 0 0 0 1.063 1.188h.122c.7-.148 1.062-.518 1.062-1.1v-6.035a5.154 5.154 0 0 0 -.506-2.132 4.619 4.619 0 0 0 -4.137-2.647h-.011l-.911.13h-.012a4.153 4.153 0 0 0 -2.547 1.572l.134-.014a4.185 4.185 0 0 0 -3.457-1.692 3.714 3.714 0 0 0 -2.477.738l.13.042a1.017 1.017 0 0 0 -1.071-.781c-.709.008-1.109.451-1.19 1.338z" transform="translate(-562.792 -253.404)"/><path d="m91.487 209.474h.319l-.24-.315-1.348 6.766.446-.087-2.135-3.546-.1-.174-.182.068-.864.32.282.1-.147-.222-.114.394 1.313-.522-.291-.1 1.731 2.844.323.529.123-.616 1.124-5.648zm-.918 5.242-1.738-2.85-.107-.175-.184.073-1.314.521-.3.118.182.278.147.222.106.162.179-.065.864-.319-.286-.106 2.134 3.545.323.536.124-.622 1.348-6.765.063-.315h-.821l-.041.207-1.123 5.647z" transform="translate(-85.334 -208.953)"/></g></svg>